# Blender v2.78 (sub 0) OBJ File: ''
# www.blender.org
mtllib cube.mtl
o Cube
v -1.379964 -0.367956 -0.979953
v -1.165115 -0.865481 0.945224
v -0.705391 1.471829 -0.579778
v -0.490542 0.974304 1.345399
v 0.490542 -0.974304 -1.345399
v 0.705391 -1.471829 0.579778
v 1.165115 0.865481 -0.945224
v 1.379964 0.367956 0.979953
vt 1.0000 0.0000
vt 0.0000 1.0000
vt 0.0000 0.0000
vt 1.0000 0.0000
vt 0.0000 1.0000
vt 0.0000 0.0000
vt 1.0000 0.0000
vt 0.0000 1.0000
vt 0.0000 0.0000
vt 0.0000 0.0000
vt 1.0000 1.0000
vt 0.0000 1.0000
vt 1.0000 0.0000
vt 0.0000 0.0000
vt 0.0000 1.0000
vt 1.0000 1.0000
vt 1.0000 1.0000
vt 1.0000 1.0000
vt 1.0000 0.0000
vt 1.0000 1.0000
vn -0.9353 0.3032 0.1827
vn 0.3373 0.9199 0.2001
vn 0.9353 -0.3032 -0.1827
vn -0.3373 -0.9199 -0.2001
vn -0.1074 0.2488 -0.9626
vn 0.1074 -0.2488 0.9626
usemtl 0
s off
f 2/1/1 3/2/1 1/3/1
f 4/4/2 7/5/2 3/6/2
f 8/7/3 5/8/3 7/9/3
f 5/10/4 2/11/4 1/12/4
f 7/13/5 1/12/5 3/6/5
f 8/14/6 2/11/6 6/15/6
f 2/1/1 4/16/1 3/2/1
f 4/4/2 8/17/2 7/5/2
f 8/7/3 6/18/3 5/8/3
f 5/10/4 6/19/4 2/11/4
f 7/13/5 5/20/5 1/12/5
f 8/14/6 4/4/6 2/11/6
